<svg xmlns="http://www.w3.org/2000/svg" viewBox="0 0 64 64" fill="none" aria-hidden="true"><path d="M29 22v26h6V22" stroke="#FFFFFF" stroke-width="2.5" stroke-linecap="round" stroke-linejoin="round"></path><path d="M17 37v11h6V37" stroke="#FFFFFF" stroke-width="2.5" stroke-linecap="round" stroke-linejoin="round"></path><path d="M41 31v17h6V31" stroke="#FFFFFF" stroke-width="2.5" stroke-linecap="round" stroke-linejoin="round"></path><path d="M13 48h38l2 4H11l2-4z" stroke="#FFFFFF" stroke-width="2.5" stroke-linecap="round" stroke-linejoin="round"></path><path d="M20 37v2M32 22v2M44 31v2" stroke="#FFFFFF" stroke-width="2.5" stroke-linecap="round"></path><path d="M20 27c-3 2-3 5 0 7c3-2 3-5 0-7zM32 13c-3 2-3 5 0 7c3-2 3-5 0-7zM44 21c-3 2-3 5 0 7c3-2 3-5 0-7z" stroke="#FFFFFF" stroke-width="2.5" stroke-linecap="round" stroke-linejoin="round"></path></svg>