<svg xmlns="http://www.w3.org/2000/svg" viewBox="0 0 64 64" fill="none" aria-hidden="true"><path d="M41 47V13q0-3-3-3H18v32c-4 0-6 3-4 6h23" stroke="#FFFFFF" stroke-width="2.5" stroke-linecap="round" stroke-linejoin="round"></path><path d="M29 15v12M25 19h8" stroke="#FFFFFF" stroke-width="2.5" stroke-linecap="round"></path><path d="M24 31h10M22 35h14M20 39h18" stroke="#FFFFFF" stroke-width="2.5" stroke-linecap="round"></path><path d="M52.5 35 51.8 36.5 51.3 38.8 48.9 39 47 41.2 46 41.5 45 41.2 43.1 39 40.7 38.8 40.2 36.5 39.5 35 40.2 33.5 40.7 31.2 43.1 31 45 28.8 46 28.5 47 28.8 48.9 31 51.3 31.2 51.8 33.5 52.5 35Z" stroke="#FFFFFF" stroke-width="2.5" stroke-linejoin="round"></path><path d="M44.5 42v11M47.5 42v11M44.5 53l1.5-3 1.5 3" stroke="#FFFFFF" stroke-width="2.5" stroke-linecap="round" stroke-linejoin="round"></path></svg>