<svg xmlns="http://www.w3.org/2000/svg" width="512" height="512"><path d="M0 0 C4.06856402 0.47865459 5.20870373 1.56315691 8.1875 4.375 C10.22283113 7.0576821 11.98872501 9.88191445 13.75 12.75 C14.26594727 13.58217041 14.78189453 14.41434082 15.31347656 15.27172852 C32.06974725 42.61104055 52.3958349 78.1936203 45.0625 111.625 C42.1167231 121.96274977 36.24532755 130.87460436 26.875 136.2890625 C21.11910724 139.31198006 15.47233462 141.73164401 9.1875 143.375 C8.8575 145.355 8.5275 147.335 8.1875 149.375 C9.22261719 149.34019531 10.25773438 149.30539063 11.32421875 149.26953125 C28.31014371 148.89687199 45.45011948 150.46925916 62.1875 153.375 C61.8575 152.715 61.5275 152.055 61.1875 151.375 C58.94424394 113.97301909 78.75961019 75.37658165 101.1875 46.375 C104.32621188 44.80564406 106.72605822 45.02298897 110.1875 45.375 C114.62076134 49.1128478 117.57839854 53.63534028 120.625 58.5 C121.39009888 59.72106445 121.39009888 59.72106445 122.1706543 60.96679688 C138.6769262 87.83897766 157.78880755 122.10974145 151.4921875 155.0078125 C148.43316282 166.08713717 142.65326748 174.75184867 133.1875 181.375 C127.10679452 184.56578686 121.06331401 186.9061945 114.1875 187.375 C114.1875 188.695 114.1875 190.015 114.1875 191.375 C114.87827637 191.36484863 115.56905273 191.35469727 116.28076172 191.34423828 C124.65633117 191.27657086 132.95754062 191.68932673 141.3125 192.25 C141.98882477 192.29479492 142.66514954 192.33958984 143.36196899 192.38574219 C151.54337596 192.93075862 159.71985779 193.51482625 167.875 194.375 C168.93195068 194.48110596 168.93195068 194.48110596 170.01025391 194.58935547 C173.41671665 194.98138606 176.35961583 195.36170542 179.1875 197.375 C181.61394827 200.96675852 181.46296661 204.58601818 181.42800903 208.76544189 C181.43057231 209.88537824 181.43057231 209.88537824 181.43318737 211.02793956 C181.4364827 213.53076815 181.42547792 216.0333289 181.41455078 218.53613281 C181.41398668 220.3298034 181.41430321 222.12347445 181.41543579 223.91714478 C181.41601033 228.78869373 181.40423957 233.66014447 181.39028788 238.53167057 C181.37779745 243.6219184 181.37661135 248.71216841 181.37423706 253.8024292 C181.36801733 263.44254403 181.35159983 273.08261358 181.33153808 282.72270846 C181.30919443 293.6971931 181.29818951 304.67167987 181.28814721 315.64618158 C181.26723404 338.22247951 181.23204847 360.79873722 181.1875 383.375 C182.28739258 383.35928955 183.38728516 383.3435791 184.52050781 383.32739258 C188.60555687 383.27304697 192.69057403 383.23863316 196.77587891 383.21020508 C198.54318619 383.19512898 200.31045614 383.17466478 202.07763672 383.14868164 C204.61955995 383.11224598 207.16098806 383.09526206 209.703125 383.08203125 C210.49180969 383.06654739 211.28049438 383.05106354 212.09307861 383.03511047 C215.36605152 383.0341089 217.75140359 383.13881701 220.65917969 384.71362305 C222.93536479 387.18797442 223.1210597 389.05298491 223.1875 392.375 C221.32788838 396.98826729 218.79189226 398.39480761 214.43873596 400.25234985 C213.27796791 400.71911636 213.27796791 400.71911636 212.09375 401.1953125 C211.28248154 401.53621918 210.47121307 401.87712585 209.63536072 402.22836304 C206.99225148 403.33448274 204.34040562 404.41761189 201.6875 405.5 C199.86806447 406.25463937 198.04913713 407.01050513 196.23071289 407.76757812 C192.59522089 409.27783548 188.95595609 410.77837602 185.31298828 412.27050781 C181.44415846 413.85579758 177.58357868 415.45929185 173.72897339 417.0788269 C170.69750797 418.35192767 167.66119562 419.6132212 164.625 420.875 C163.5525 421.32504395 162.48 421.77508789 161.375 422.23876953 C156.26576771 424.33079751 151.70582735 425.94158299 146.1875 426.375 C146.20844727 427.11661377 146.22939453 427.85822754 146.25097656 428.62231445 C146.33404137 431.9772388 146.38613014 435.33194707 146.4375 438.6875 C146.47101563 439.85474609 146.50453125 441.02199219 146.5390625 442.22460938 C146.55195313 443.34287109 146.56484375 444.46113281 146.578125 445.61328125 C146.59907227 446.64493408 146.62001953 447.67658691 146.64160156 448.73950195 C146.1875 451.375 146.1875 451.375 144.45272541 453.01612341 C141.86707787 454.56721669 140.4799524 454.75073976 137.48979187 454.75252342 C136.54377767 454.76034666 135.59776346 454.76816991 134.62308216 454.77623022 C133.58690597 454.76953805 132.55072977 454.76284589 131.4831543 454.75595093 C129.82842244 454.76297089 129.82842244 454.76297089 128.14026165 454.77013266 C124.43062634 454.78213262 120.72135704 454.77260564 117.01171875 454.76318359 C114.35754308 454.76724707 111.70339294 454.77247883 109.04922485 454.77911377 C102.580672 454.79246499 96.11222348 454.78956722 89.64366651 454.78087585 C84.38730337 454.77410516 79.13096951 454.77317991 73.87460327 454.7764473 C73.12695259 454.776907 72.3793019 454.77736669 71.60899514 454.77784032 C70.09023419 454.77879948 68.57147325 454.77977212 67.05271232 454.7807581 C52.80584939 454.78931606 38.55904433 454.77947151 24.31219089 454.763357 C12.08342379 454.74995344 -0.14525788 454.75228142 -12.37402344 454.76611328 C-26.56933976 454.78216194 -40.76460534 454.78849205 -54.95992947 454.77927649 C-56.47315406 454.77832083 -57.98637866 454.77737771 -59.49960327 454.7764473 C-60.24417024 454.77598447 -60.98873722 454.77552164 -61.75586683 454.77504479 C-67.00690414 454.77245275 -72.25790931 454.77683049 -77.50894165 454.78388596 C-83.90679911 454.79229323 -90.30454613 454.79003717 -96.70239091 454.77404372 C-99.96771655 454.76615047 -103.23281951 454.76469762 -106.49814987 454.77299118 C-110.03500377 454.7811482 -113.57133406 454.77095537 -117.1081543 454.75595093 C-118.66241859 454.76598918 -118.66241859 454.76598918 -120.24808216 454.77623022 C-121.19409636 454.76840697 -122.14011057 454.76058373 -123.11479187 454.75252342 C-123.93130061 454.75203637 -124.74780935 454.75154931 -125.58906078 454.75104749 C-128.38152065 454.27876225 -129.76808594 453.30904711 -131.8125 451.375 C-132.26660156 448.73950195 -132.26660156 448.73950195 -132.203125 445.61328125 C-132.19023437 444.49501953 -132.17734375 443.37675781 -132.1640625 442.22460938 C-132.13054687 441.05736328 -132.09703125 439.89011719 -132.0625 438.6875 C-132.04445313 437.50865234 -132.02640625 436.32980469 -132.0078125 435.11523438 C-131.96061859 432.20101074 -131.89479077 429.28840969 -131.8125 426.375 C-132.72747505 426.22485191 -132.72747505 426.22485191 -133.66093445 426.07167053 C-139.98341625 424.93520067 -145.57139443 423.09833395 -151.45703125 420.55859375 C-152.34750656 420.1832399 -153.23798187 419.80788605 -154.15544128 419.42115784 C-156.98243321 418.22702951 -159.80371068 417.02003026 -162.625 415.8125 C-164.47294655 415.02974676 -166.32125187 414.24783995 -168.16992188 413.46679688 C-171.85865241 411.90704121 -175.54143716 410.33422135 -179.22119141 408.75341797 C-183.0559139 407.11035207 -186.90731367 405.51768436 -190.77490234 403.95361328 C-192.21853401 403.36049095 -192.21853401 403.36049095 -193.69132996 402.75538635 C-195.52590714 402.00231811 -197.36551063 401.26134208 -199.21064758 400.53453064 C-202.94367908 398.98712707 -205.31690944 397.98547983 -207.89770508 394.80639648 C-209.12652891 391.54035525 -208.88886384 389.67584909 -207.8125 386.375 C-205.25888598 383.59906655 -203.77443692 383.3716334 -199.96191406 383.03442383 C-198.41723626 383.03489652 -196.87250527 383.0517112 -195.328125 383.08203125 C-194.51253113 383.08627609 -193.69693726 383.09052094 -192.85662842 383.09489441 C-190.25824616 383.11165285 -187.66064681 383.14929903 -185.0625 383.1875 C-183.29818831 383.20255054 -181.53386442 383.2162383 -179.76953125 383.22851562 C-175.45022035 383.26154699 -171.1314928 383.31330914 -166.8125 383.375 C-166.81526538 382.72508496 -166.81803076 382.07516993 -166.82087994 381.40556049 C-166.88714098 365.58966885 -166.93678112 349.77382551 -166.96793652 333.95782948 C-166.9834036 326.30931932 -167.00449003 318.66090184 -167.03881836 311.01245117 C-167.06872564 304.34584274 -167.08807616 297.67930143 -167.09476548 291.01262778 C-167.09867552 287.48284483 -167.10786114 283.95325388 -167.12969017 280.42353249 C-167.15386448 276.48259515 -167.15446913 272.54184544 -167.15307617 268.60083008 C-167.163862 267.43126266 -167.17464783 266.26169525 -167.1857605 265.0566864 C-167.17957451 263.44348007 -167.17957451 263.44348007 -167.17326355 261.79768372 C-167.17602893 260.86575101 -167.17879431 259.9338183 -167.18164349 258.97364521 C-166.73142684 255.80427238 -165.71274181 253.93489889 -163.8125 251.375 C-157.78932429 248.87738981 -151.12327982 248.53881141 -144.6875 247.8125 C-143.56456543 247.68319092 -142.44163086 247.55388184 -141.28466797 247.4206543 C-127.38138666 245.84298414 -113.79452718 245.24211907 -99.8125 245.375 C-99.8125 244.385 -99.8125 243.395 -99.8125 242.375 C-101.05 242.16875 -102.2875 241.9625 -103.5625 241.75 C-115.25101036 239.11778428 -125.54800074 232.73792674 -132.125 222.6875 C-140.77898926 207.00656578 -138.93798931 188.87945753 -134.21044922 172.25830078 C-127.08628797 148.30297506 -115.4579636 125.61236788 -100.8125 105.375 C-100.16667969 104.46878906 -99.52085937 103.56257813 -98.85546875 102.62890625 C-96.66282477 100.20987073 -95.83250087 99.54035525 -92.625 99.3125 C-89.37938358 99.54508489 -88.08181422 100.13193662 -85.6484375 102.328125 C-83.12341008 105.54179626 -80.92454797 108.8833078 -78.8125 112.375 C-78.33876953 113.15762207 -77.86503906 113.94024414 -77.37695312 114.74658203 C-71.22772684 125.0328843 -65.55736997 135.5352 -60.3359375 146.3203125 C-58.85988648 149.43939145 -58.85988648 149.43939145 -56.8125 152.375 C-56.11503662 152.28412109 -55.41757324 152.19324219 -54.69897461 152.09960938 C-38.65736088 150.05224642 -22.98357066 148.91752738 -6.8125 149.375 C-7.1425 147.395 -7.4725 145.415 -7.8125 143.375 C-8.95525391 143.02888672 -8.95525391 143.02888672 -10.12109375 142.67578125 C-24.67886006 138.07763534 -34.55773226 132.11509041 -41.8125 118.375 C-50.06936678 99.82612323 -43.61470542 76.75397936 -36.86401367 58.76391602 C-14.46638576 1.92885143 -14.46638576 1.92885143 0 0 Z M0.1875 21.375 C-16.29090284 44.81492824 -34.30218446 78.47462166 -29.34765625 108.16015625 C-27.39958749 114.88041713 -23.84598013 119.58266926 -17.82421875 123.140625 C-12.57142328 126.14557383 -12.57142328 126.14557383 -6.8125 127.375 C-6.80839111 126.42133545 -6.80428223 125.4676709 -6.80004883 124.48510742 C-6.77827034 120.94549571 -6.72399699 117.40699775 -6.65991211 113.86791992 C-6.63672035 112.33645302 -6.62233356 110.80482637 -6.61694336 109.27319336 C-6.60766108 107.07043788 -6.56669732 104.8701986 -6.51953125 102.66796875 C-6.52543022 101.64125313 -6.52543022 101.64125313 -6.53144836 100.59379578 C-6.47192383 98.65307617 -6.47192383 98.65307617 -5.8125 95.375 C-2.83734585 92.88367623 -1.51961411 92.34727003 2.375 92.5 C5.1875 93.375 5.1875 93.375 7.1875 96.375 C7.50634766 99.5612793 7.50634766 99.5612793 7.6015625 103.44921875 C7.62092865 104.1330513 7.6402948 104.81688385 7.6602478 105.5214386 C7.71993997 107.70166625 7.76638631 109.88194702 7.8125 112.0625 C7.85068943 113.5423405 7.88974174 115.022159 7.9296875 116.50195312 C8.02563202 120.1261005 8.10970151 123.75041257 8.1875 127.375 C16.7736515 124.82441812 21.89453294 121.44788031 27.5625 114.4375 C34.06522114 102.1823717 31.35426385 87.92850738 27.53564453 75.20263672 C21.4673378 56.32208699 12.22271459 37.85083202 1.1875 21.375 C0.8575 21.375 0.5275 21.375 0.1875 21.375 Z M106.1875 66.375 C90.71141736 89.95928083 73.17280703 120.18729077 76.1875 149.375 C77.81674003 157.01691157 80.86839961 162.68992961 87.1875 167.375 C91.06544107 169.74525557 94.77981955 171.31011081 99.1875 172.375 C99.1968457 171.45686523 99.20619141 170.53873047 99.21582031 169.59277344 C99.25989931 166.17794722 99.32153732 162.76436892 99.39501953 159.35009766 C99.42320088 157.87397804 99.44442966 156.39770831 99.45849609 154.92138672 C99.47996698 152.79576943 99.52663043 150.67195121 99.578125 148.546875 C99.59907227 147.2690918 99.62001953 145.99130859 99.64160156 144.67480469 C100.1875 141.375 100.1875 141.375 101.99902344 138.92285156 C104.1875 137.375 104.1875 137.375 107.8125 137.4375 C111.1875 138.375 111.1875 138.375 113.1875 141.375 C113.50634766 144.5612793 113.50634766 144.5612793 113.6015625 148.44921875 C113.62092865 149.1330513 113.6402948 149.81688385 113.6602478 150.5214386 C113.71993997 152.70166625 113.76638631 154.88194702 113.8125 157.0625 C113.85068943 158.5423405 113.88974174 160.022159 113.9296875 161.50195312 C114.02563202 165.1261005 114.10970151 168.75041257 114.1875 172.375 C122.95867237 169.09397082 130.12410266 165.85051747 134.625 157.1875 C141.245525 142.61046963 135.9135567 125.28443677 130.60327148 111.12133789 C124.57442488 95.73702132 117.10045317 79.68578932 107.1875 66.375 C106.8575 66.375 106.5275 66.375 106.1875 66.375 Z M-92.8125 121.375 C-109.00628682 144.48996694 -127.24397056 177.82609981 -122.37890625 206.97265625 C-120.4727033 213.8752421 -116.29298573 219.19903623 -110.23828125 222.984375 C-105.27575288 225.61856507 -105.27575288 225.61856507 -99.8125 226.375 C-99.79791748 225.45162842 -99.78333496 224.52825684 -99.76831055 223.5769043 C-99.70723692 220.14922796 -99.6330839 216.72235338 -99.55004883 213.29516602 C-99.51680577 211.81220146 -99.48877177 210.32911056 -99.46606445 208.84594727 C-99.43250532 206.71315707 -99.38019362 204.58152388 -99.32421875 202.44921875 C-99.29803467 201.16619873 -99.27185059 199.88317871 -99.24487305 198.5612793 C-98.8125 195.375 -98.8125 195.375 -97.49926758 193.45629883 C-94.63326963 191.61905684 -92.10064813 192.02269841 -88.8125 192.375 C-87.12573242 193.45629883 -87.12573242 193.45629883 -85.8125 195.375 C-85.38012695 198.5612793 -85.38012695 198.5612793 -85.30078125 202.44921875 C-85.28283005 203.1330513 -85.26487885 203.81688385 -85.24638367 204.5214386 C-85.19227925 206.70173 -85.1583866 208.88180256 -85.125 211.0625 C-85.0918268 212.54234817 -85.05733713 214.02216745 -85.02148438 215.50195312 C-84.93655476 219.12609169 -84.86974365 222.75030652 -84.8125 226.375 C-75.98022137 225.04577532 -70.29935171 220.70351041 -65.00390625 213.59765625 C-58.56716313 201.58943712 -61.61204836 187.46983668 -65.28125 175.1171875 C-71.14893174 156.51362731 -79.9918743 136.94046526 -91.8125 121.375 C-92.1425 121.375 -92.4725 121.375 -92.8125 121.375 Z M-24.5 164.25 C-25.81033203 164.32863281 -27.12066406 164.40726563 -28.47070312 164.48828125 C-36.35757705 164.99964963 -44.04790664 165.89421292 -51.8125 167.375 C-51.6794043 168.02879639 -51.54630859 168.68259277 -51.40917969 169.35620117 C-51.06332098 171.06562393 -50.72485488 172.77654681 -50.390625 174.48828125 C-50.03124458 176.28275509 -49.64978578 178.07313194 -49.234375 179.85546875 C-46.18223169 193.91712902 -46.13412919 209.36350833 -53.37890625 222.13671875 C-56.75253378 227.31503378 -56.75253378 227.31503378 -58.8125 229.375 C-58.88575168 232.23767567 -58.90488205 235.075719 -58.875 237.9375 C-58.87048828 238.74380859 -58.86597656 239.55011719 -58.86132812 240.38085938 C-58.84950518 242.37893756 -58.83156914 244.37697783 -58.8125 246.375 C-57.91007568 246.48569824 -57.00765137 246.59639648 -56.07788086 246.71044922 C-52.70213821 247.1272397 -49.32709573 247.54902704 -45.95239258 247.97412109 C-44.49691006 248.1564396 -43.0411825 248.33681356 -41.58520508 248.51513672 C-39.48189579 248.77309654 -37.37959269 249.0382402 -35.27734375 249.3046875 C-34.015271 249.46179199 -32.75319824 249.61889648 -31.45288086 249.78076172 C-27.7377533 250.38720129 -24.34152626 251.05308138 -20.8125 252.375 C-18.7363968 255.44084957 -18.55564074 258.03192924 -18.5340271 261.6774292 C-18.52286362 262.75152542 -18.51170013 263.82562164 -18.50019836 264.93226624 C-18.49803818 266.10542892 -18.49587799 267.27859161 -18.49365234 268.48730469 C-18.48360672 269.72659225 -18.4735611 270.96587982 -18.46321106 272.24272156 C-18.43762023 275.63704106 -18.42076446 279.03119345 -18.40778303 282.42557049 C-18.39214857 285.97437483 -18.36535936 289.52309451 -18.3397522 293.07183838 C-18.29296997 299.79008231 -18.2562232 306.50834218 -18.22307932 313.22666574 C-18.18485399 320.8760002 -18.13544492 328.52524962 -18.08509517 336.17451239 C-17.98178355 351.907953 -17.89399706 367.64142897 -17.8125 383.375 C-1.3125 383.375 15.1875 383.375 32.1875 383.375 C32.20731934 377.88262695 32.22713867 372.39025391 32.24755859 366.73144531 C32.31435767 348.61848452 32.3918979 330.50558161 32.47502708 312.39268875 C32.52518207 301.406989 32.57162466 290.42129683 32.609375 279.43554688 C32.64228158 269.86210769 32.68210541 260.28872676 32.73029006 250.71535182 C32.7555683 245.6447631 32.77734568 240.57421309 32.79084396 235.50357819 C32.80365227 230.73314805 32.82569339 225.9628506 32.85488319 221.19249344 C32.8639686 219.43972582 32.86965144 217.68693683 32.87171364 215.93414688 C32.87502938 213.54442707 32.89048796 211.15508499 32.9090271 208.76544189 C32.90709237 208.06894067 32.90515763 207.37243945 32.90316427 206.65483212 C32.94462067 203.09008212 33.12126589 200.35106597 35.1875 197.375 C37.078125 196.6171875 37.078125 196.6171875 39.4375 196.25 C40.31664062 196.105625 41.19578125 195.96125 42.1015625 195.8125 C43.11992187 195.668125 44.13828125 195.52375 45.1875 195.375 C46.43273437 195.189375 47.67796875 195.00375 48.9609375 194.8125 C52.36716988 194.31503807 55.7771076 193.84309307 59.1875 193.375 C59.1875 185.125 59.1875 176.875 59.1875 168.375 C46.73675175 166.36090837 34.39271058 164.96684102 21.8125 164.1875 C19.83733398 164.06205811 19.83733398 164.06205811 17.82226562 163.93408203 C3.64928243 163.11068908 -10.33880142 163.30826272 -24.5 164.25 Z M74.1875 176.375 C74.1875 181.655 74.1875 186.935 74.1875 192.375 C86.5625 191.88 86.5625 191.88 99.1875 191.375 C99.1875 190.055 99.1875 188.735 99.1875 187.375 C98.22070312 187.08367187 97.25390625 186.79234375 96.2578125 186.4921875 C88.16624642 183.97261432 81.31803703 181.0921245 74.1875 176.375 Z M47.1875 209.375 C47.1875 266.795 47.1875 324.215 47.1875 383.375 C86.4575 383.375 125.7275 383.375 166.1875 383.375 C166.21661419 352.65136847 166.21661419 352.65136847 166.23632812 321.92773438 C166.24227164 309.40649 166.24927476 296.88525232 166.26293945 284.36401367 C166.27288476 275.24660565 166.27935306 266.12920304 166.28158849 257.01178974 C166.28289586 252.18106124 166.28598336 247.35034825 166.29323006 242.51962471 C166.29998785 237.97826313 166.30211746 233.43692353 166.30060768 228.8955574 C166.30088412 227.22375431 166.30289066 225.55195052 166.30670547 223.88015175 C166.31163898 221.60774147 166.31049958 219.33541554 166.30775452 217.06300354 C166.30867631 215.78816384 166.3095981 214.51332415 166.31054783 213.19985294 C166.51047056 210.47274883 166.51047056 210.47274883 165.1875 209.375 C162.84615114 209.06774498 160.52701502 208.82372844 158.17578125 208.62109375 C157.43669022 208.55569397 156.69759918 208.49029419 155.93611145 208.4229126 C153.45808955 208.20996445 150.97938044 208.00898642 148.5 207.8125 C147.21739288 207.71069931 147.21739288 207.71069931 145.90887451 207.60684204 C113.02492159 205.07651824 79.92343238 205.28300845 47.1875 209.375 Z M-79.875 240.875 C-80.79410156 241.1534375 -81.71320313 241.431875 -82.66015625 241.71875 C-83.72556641 242.04359375 -83.72556641 242.04359375 -84.8125 242.375 C-84.8125 243.365 -84.8125 244.355 -84.8125 245.375 C-81.1825 245.375 -77.5525 245.375 -73.8125 245.375 C-73.8125 243.395 -73.8125 241.415 -73.8125 239.375 C-75.86894489 239.375 -77.92883213 240.28375913 -79.875 240.875 Z M-151.8125 264.375 C-151.8125 303.645 -151.8125 342.915 -151.8125 383.375 C-112.5425 383.375 -73.2725 383.375 -32.8125 383.375 C-32.8125 344.105 -32.8125 304.835 -32.8125 264.375 C-51.9849899 260.54050202 -70.74708174 260.0087842 -90.25 260.0625 C-92.09579651 260.0632402 -92.09579651 260.0632402 -93.97888184 260.06399536 C-123.11191511 259.89260959 -123.11191511 259.89260959 -151.8125 264.375 Z M-161.8125 398.375 C-150.03076361 410.15673639 -127.60953103 412.7790609 -112.00613403 412.87692261 C-109.50554504 412.85714354 -107.00496503 412.8362013 -104.50439453 412.81420898 C-101.78877366 412.82478794 -99.07336204 412.85166367 -96.35784912 412.87748718 C-89.82016429 412.92959653 -83.28385858 412.92365294 -76.74607839 412.89497315 C-71.42028881 412.87264168 -66.09488458 412.87198184 -60.76906967 412.88591194 C-60.00399972 412.88788623 -59.23892976 412.88986051 -58.45067587 412.89189463 C-56.89524339 412.89598493 -55.33981101 412.900117 -53.78437875 412.90429033 C-39.27982479 412.94062256 -24.77603127 412.90942208 -10.2715746 412.85470218 C2.10406778 412.80967503 14.47843798 412.82521106 26.85400391 412.88452148 C41.31214272 412.95379801 55.76950955 412.98287596 70.22780526 412.95143563 C71.77734943 412.9481841 73.32689373 412.94498887 74.87643814 412.94185066 C75.6383437 412.94029434 76.40024925 412.93873803 77.18524285 412.93713455 C82.48762131 412.92901495 87.78945391 412.94866298 93.09173203 412.97997856 C99.57855522 413.01760154 106.0636714 413.01089486 112.55035792 412.9516617 C115.8448188 412.92262689 119.13407082 412.9174798 122.42879868 412.95350647 C142.84354538 413.15718325 158.09216657 408.19970969 176.1875 399.375 C176.1875 399.045 176.1875 398.715 176.1875 398.375 C64.6475 398.375 -46.8925 398.375 -161.8125 398.375 Z M-117.8125 426.375 C-117.8125 430.665 -117.8125 434.955 -117.8125 439.375 C-35.3125 439.375 47.1875 439.375 132.1875 439.375 C132.1875 435.085 132.1875 430.795 132.1875 426.375 C49.6875 426.375 -32.8125 426.375 -117.8125 426.375 Z " fill="#FFFFFF" transform="translate(248.8125,28.625)"></path></svg>