<svg xmlns="http://www.w3.org/2000/svg" width="512" height="512"><path d="M0 0 C0.81197818 -0.01076578 1.62395636 -0.02153157 2.46053994 -0.03262359 C3.79036851 -0.03514004 3.79036851 -0.03514004 5.1470623 -0.03770733 C6.09333107 -0.0471774 7.03959984 -0.05664748 8.01454341 -0.06640452 C11.19387985 -0.09551618 14.37311536 -0.11022104 17.55254936 -0.12478924 C19.82932894 -0.14222968 22.1061031 -0.16038985 24.38287163 -0.17921734 C31.87150061 -0.23684451 39.36016292 -0.27241424 46.84893608 -0.30520916 C48.12437074 -0.31115526 49.3998054 -0.31710136 50.7138896 -0.32322764 C62.7522171 -0.37917927 74.79054202 -0.42817181 86.82896423 -0.45737457 C89.61670901 -0.46425299 92.40445355 -0.47121772 95.1921978 -0.47830486 C95.88501806 -0.48005927 96.57783833 -0.48181369 97.29165314 -0.48362126 C108.48610339 -0.51320861 119.67979348 -0.58744926 130.87388076 -0.68012968 C142.38895768 -0.77467686 153.90352687 -0.82616802 165.41900051 -0.83949202 C171.875531 -0.8480732 178.33074147 -0.87487735 184.78689766 -0.94733906 C190.87283259 -1.01470506 196.95668657 -1.02886956 203.04292107 -1.00394917 C205.26400035 -1.00378346 207.48517909 -1.02210981 209.70591164 -1.06135464 C224.47370042 -1.3080369 234.07756835 1.03290479 246.02144027 9.89928496 C248.92259753 12.02259134 251.95659345 13.90669439 254.99737358 15.82369709 C257.134632 17.2219276 259.27009467 18.62290739 261.40362358 20.02682209 C263.01624077 21.08063068 263.01624077 21.08063068 264.66143608 22.15572834 C267.75175276 24.18210388 270.83095128 26.223806 273.90362358 28.27682209 C274.845606 28.90411213 275.78758842 29.53140217 276.75811577 30.177701 C281.13703444 33.15616917 284.93383281 35.88209954 288.15362358 40.15182209 C289.24803764 41.55947834 289.24803764 41.55947834 290.36456108 42.99557209 C290.76127007 43.51248615 291.15797905 44.02940022 291.56670952 44.56197834 C294.23326527 47.98233765 297.01618041 51.30884933 299.77862358 54.65182209 C300.67629448 55.74297321 300.67629448 55.74297321 301.59210014 56.85616779 C306.13554912 62.37312512 310.74648677 67.82828003 315.40362358 73.24947834 C317.90362358 76.27682209 317.90362358 76.27682209 319.08288383 78.29224873 C321.04758745 81.48139173 322.5425631 83.85779405 326.22479057 84.99143696 C329.05800782 85.2325509 331.79598825 85.22818148 334.63799858 85.13619709 C336.18780418 85.13828175 336.18780418 85.13828175 337.76891899 85.14040852 C341.06527542 85.14009767 344.35786106 85.08706928 347.65362358 85.02682209 C350.93448377 84.98770674 354.21438569 84.96047041 357.49548149 84.95608234 C359.53255508 84.951295 361.56972454 84.92599356 363.60619926 84.87637043 C373.39929645 84.81284832 381.12998551 87.73109154 388.22002983 94.50729084 C397.36110029 104.11495887 397.27208422 116.250297 397.00909233 128.76119709 C396.9568853 130.50143147 396.9568853 130.50143147 396.90362358 132.27682209 C398.32674858 132.43150959 398.32674858 132.43150959 399.77862358 132.58932209 C402.90362358 133.27682209 402.90362358 133.27682209 404.90362358 136.27682209 C405.16431999 138.36373615 405.16431999 138.36373615 405.17828178 140.79244709 C405.1878138 141.70349201 405.19734581 142.61453693 405.20716667 143.55318928 C405.20579956 145.02513752 405.20579956 145.02513752 405.20440483 146.52682209 C405.20868996 147.53648029 405.21297508 148.5461385 405.21739006 149.5863924 C405.22313408 151.72147592 405.2236331 153.856579 405.21929741 155.99166584 C405.21613583 159.26413929 405.23960173 162.53571035 405.26495171 165.80807209 C405.26722446 167.88098761 405.2679283 169.95390557 405.26690483 172.02682209 C405.27611458 173.00812092 405.28532433 173.98941975 405.29481316 175.0004549 C405.28546997 176.36702229 405.28546997 176.36702229 405.27593803 177.76119709 C405.27656746 178.5626717 405.27719688 179.36414631 405.27784538 180.18990803 C404.80682458 182.81663885 403.99774104 183.6658414 401.90362358 185.27682209 C398.08206979 186.55067336 394.49677888 186.40035397 390.51690483 186.37447834 C389.69989601 186.37306339 388.88288719 186.37164845 388.04112053 186.37019062 C385.4327509 186.36459503 382.82446725 186.35204338 380.21612358 186.33932209 C378.44724461 186.33430652 376.6783643 186.32974371 374.90948296 186.32565022 C370.57416339 186.31462705 366.23890806 186.29736547 361.90362358 186.27682209 C361.80275444 186.9037093 361.7018853 187.5305965 361.59795952 188.17648029 C360.5418398 194.12023688 358.95382932 199.12717218 356.15362358 204.46432209 C355.79365288 205.15920734 355.43368217 205.8540926 355.06280327 206.57003498 C348.33722821 219.24112618 337.68783926 227.67143011 324.04424858 232.34322834 C308.47406137 236.97167951 293.47436133 235.9085971 278.81377983 228.77291584 C264.43969333 220.96051826 255.19955731 208.77336294 250.27862358 193.24166584 C249.90362358 191.27682209 249.90362358 191.27682209 249.90362358 186.27682209 C206.34362358 186.27682209 162.78362358 186.27682209 117.90362358 186.27682209 C117.24362358 189.57682209 116.58362358 192.87682209 115.90362358 196.27682209 C112.11082544 210.07238837 102.06962934 221.02570882 89.84893608 228.02682209 C76.16296581 235.12577924 60.90796585 237.37077632 45.90362358 233.27682209 C31.43442294 228.63469821 19.08543002 219.56880884 11.95928764 205.99606037 C8.72674987 199.59034413 5.90362358 193.55194298 5.90362358 186.27682209 C5.12545784 186.28348392 4.3472921 186.29014576 3.54554558 186.29700947 C-3.79623397 186.35717838 -11.13789357 186.4028257 -18.47985554 186.43225861 C-22.25423598 186.4478992 -26.02841228 186.4691077 -29.80267525 186.50314045 C-33.4466451 186.53579185 -37.09041889 186.55368719 -40.73452377 186.56145382 C-42.1231749 186.56698701 -43.51181558 186.57779212 -44.900383 186.59401226 C-46.84866387 186.61586065 -48.797143 186.61704813 -50.74554634 186.61739826 C-51.85363152 186.6240601 -52.96171669 186.63072193 -54.1033802 186.63758564 C-57.78196402 186.19418416 -60.45809964 184.91509887 -63.09637642 182.27682209 C-63.21004743 180.855905 -63.25590242 179.42946647 -63.27337837 178.00411701 C-63.28621361 177.09614872 -63.29904884 176.18818043 -63.31227303 175.25269794 C-63.31965996 174.2642136 -63.32704689 173.27572926 -63.33465767 172.25729084 C-63.34272942 171.24717442 -63.35080116 170.23705799 -63.35911751 169.19633198 C-63.37297702 167.05350184 -63.38369078 164.91064946 -63.39154243 162.76778889 C-63.40874969 159.48847329 -63.4526189 156.21016692 -63.49676704 152.93111897 C-63.50689389 150.85235036 -63.51541002 148.77357316 -63.52215767 146.69479084 C-63.53966576 145.71237919 -63.55717384 144.72996754 -63.57521248 143.71778584 C-63.5535164 136.91414178 -63.5535164 136.91414178 -61.19476509 133.62569904 C-59.09637642 132.27682209 -59.09637642 132.27682209 -57.09637642 132.27682209 C-57.11208687 131.5112801 -57.12779732 130.74573811 -57.14398384 129.95699787 C-57.20691521 126.43868317 -57.24555071 122.92048747 -57.28387642 119.40182209 C-57.3215815 117.59584553 -57.3215815 117.59584553 -57.36004829 115.75338459 C-57.43380555 106.70582788 -57.14770827 98.31508521 -50.84637642 91.33932209 C-48.46292334 89.02964256 -46.90309019 88.21388944 -43.67938423 87.16427326 C-40.38878952 85.76512296 -40.08181242 85.25126154 -38.16278267 81.8832674 C-37.63501421 80.46674181 -37.13539066 79.03952664 -36.65887642 77.60494709 C-36.37626457 76.82635334 -36.09365273 76.04775959 -35.80247688 75.24557209 C-34.87675522 72.6804566 -33.98720213 70.10424024 -33.09637642 67.52682209 C-32.45716845 65.74027732 -31.81495366 63.95480575 -31.16986275 62.17037678 C-30.16601078 59.39173608 -29.16437867 56.61247137 -28.17225838 53.8296175 C-24.8557819 44.52978044 -21.33912911 35.3111366 -17.77874947 26.10238361 C-16.79652006 23.55955439 -15.81988405 21.01463726 -14.84442329 18.4692049 C-14.24502259 16.91020539 -13.64542395 15.35128195 -13.04559517 13.79244709 C-12.77543083 13.08692707 -12.50526649 12.38140705 -12.22691536 11.65450764 C-11.53183375 9.85603755 -10.81527348 8.06590569 -10.09637642 6.27682209 C-9.63388496 5.11618244 -9.63388496 5.11618244 -9.16205025 3.93209553 C-7.02351404 0.61038293 -3.74664929 0.02786773 0 0 Z M2.90362358 15.27682209 C0.88509596 20.52310935 -1.13325079 25.76946616 -3.15144539 31.01588154 C-3.834931 32.79257202 -4.5184621 34.56924501 -5.20204353 36.34589863 C-16.78307802 60.34845305 -16.78307802 60.34845305 -23.09637642 85.27682209 C16.50362358 85.27682209 56.10362358 85.27682209 96.90362358 85.27682209 C100.025517 79.11430698 100.025517 79.11430698 102.79473686 72.8520174 C103.10831139 72.08472309 103.42188591 71.31742878 103.74496269 70.52688313 C104.06802391 69.72764423 104.39108513 68.92840534 104.72393608 68.10494709 C105.06866966 67.26010761 105.41340324 66.41526814 105.7685833 65.54482746 C106.8582335 62.87335721 107.94371675 60.20022178 109.02862358 57.52682209 C110.12122749 54.8393728 111.21475137 52.15230707 112.3100872 49.46597004 C112.98850185 47.80167089 113.66527259 46.13670042 114.34017754 44.47097492 C114.64744774 43.71628925 114.95471794 42.96160358 115.27129936 42.18404865 C115.67289772 41.19432056 115.67289772 41.19432056 116.08260918 40.18459797 C118.54864778 34.45430999 118.54864778 34.45430999 120.90362358 33.27682209 C122.61383739 33.17192391 124.32808323 33.13024809 126.04147148 33.11860371 C127.12964668 33.10881489 128.21782188 33.09902607 129.33897209 33.08894062 C131.13755417 33.08030743 131.13755417 33.08030743 132.97247124 33.07149982 C134.23097389 33.06160023 135.48947655 33.05170063 136.78611565 33.04150105 C140.24247813 33.01442442 143.6988543 32.99342983 147.15526438 32.97349906 C150.76545054 32.95165648 154.37559436 32.92425936 157.98574638 32.89744282 C164.82447992 32.84749251 171.66323692 32.80256238 178.50201643 32.75942045 C186.2867068 32.71006803 194.07135469 32.65514252 201.856004 32.59974086 C217.87183805 32.48588493 233.88771102 32.37905378 249.90362358 32.27682209 C247.44754057 29.77846584 245.17826505 27.6384188 242.18877983 25.80416584 C241.50235405 25.37941975 240.81592827 24.95467365 240.10870171 24.51705647 C239.40165092 24.08715412 238.69460014 23.65725178 237.96612358 23.21432209 C237.26293999 22.78055256 236.55975639 22.34678303 235.83526421 21.89986897 C233.86227271 20.68500916 231.88541176 19.47727415 229.90362358 18.27682209 C228.88442943 17.50851079 228.88442943 17.50851079 227.8446455 16.72467804 C223.78549535 14.72637104 220.34000418 14.87010727 215.87437248 14.91605854 C214.96355173 14.91349527 214.05273099 14.91093199 213.11430961 14.90829104 C210.06172323 14.90334887 207.00963121 14.91985343 203.95709038 14.93624592 C201.76918868 14.9370921 199.58128613 14.93661723 197.39338493 14.9349184 C191.45164729 14.93405667 185.51009086 14.9517115 179.56839538 14.97264028 C173.35973828 14.99137721 167.15107717 14.99315517 160.94239616 14.9967165 C149.85305886 15.0055152 138.76379662 15.02718698 127.67449359 15.05564465 C117.60886592 15.08133843 107.54325161 15.10007287 97.47759819 15.11202717 C96.48489909 15.11320942 96.48489909 15.11320942 95.47214546 15.11441556 C92.15203493 15.11833073 88.83192426 15.12211507 85.51181352 15.12585127 C57.97570386 15.15722018 30.4396684 15.20999779 2.90362358 15.27682209 Z M128.90362358 47.27682209 C126.42862358 53.17557209 123.95362358 59.07432209 121.40362358 65.15182209 C120.62051811 67.01306721 119.83741264 68.87431232 119.03057671 70.79195881 C118.41506061 72.26335792 117.79980802 73.7348673 117.18487358 75.20650959 C116.86099663 75.97358234 116.53711967 76.7406551 116.20342827 77.53097248 C114.51022503 81.27546599 114.51022503 81.27546599 113.90362358 85.27682209 C142.28362358 85.27682209 170.66362358 85.27682209 199.90362358 85.27682209 C198.04811623 79.71030003 196.22874535 74.43275924 193.98565483 69.05416584 C193.50588188 67.89908527 193.02610893 66.74400471 192.53179741 65.5539217 C191.93262505 64.12185383 191.33345268 62.68978596 190.71612358 61.21432209 C188.79799858 56.61494709 186.87987358 52.01557209 184.90362358 47.27682209 C166.42362358 47.27682209 147.94362358 47.27682209 128.90362358 47.27682209 Z M200.90362358 47.27682209 C201.84988722 49.8164365 202.79760737 52.35549166 203.74615288 54.89425373 C204.01121384 55.60609066 204.2762748 56.31792759 204.5493679 57.05133533 C206.77778505 63.01012642 209.18373215 68.87805337 211.71612358 74.71432209 C212.10993217 75.63535725 212.50374077 76.5563924 212.90948296 77.50533772 C214.45030473 81.67847493 214.45030473 81.67847493 216.90362358 85.27682209 C219.61200444 85.37196801 222.29480872 85.40237141 225.0034771 85.39034748 C226.27653709 85.39056652 226.27653709 85.39056652 227.57531548 85.39078999 C230.39441249 85.39009057 233.21344429 85.38229687 236.03252983 85.37447834 C237.98166175 85.37261426 239.93079413 85.37119031 241.87992668 85.37019062 C247.0206919 85.36636464 252.16142905 85.35653368 257.30218315 85.34548664 C262.54367506 85.33527424 267.78517148 85.33069337 273.02667046 85.32565022 C283.31900052 85.31491148 293.61130972 85.29783411 303.90362358 85.27682209 C301.11555996 81.03086805 298.17184474 77.10526475 294.84112358 73.27682209 C289.82702729 67.43714584 285.03961684 61.44473861 280.31377983 55.37057209 C279.51842827 54.34963459 278.72307671 53.32869709 277.90362358 52.27682209 C277.34149162 51.3997208 276.77935966 50.52261951 276.20019341 49.6189394 C274.05526913 46.98260728 274.05526913 46.98260728 270.65124321 46.67554951 C269.3632885 46.68665257 268.07533379 46.69775562 266.74835014 46.70919514 C266.03575539 46.708465 265.32316063 46.70773487 264.58897209 46.70698261 C262.23994915 46.71045864 259.89292383 46.74931545 257.54424858 46.78854084 C255.9132985 46.79786904 254.28233439 46.80498512 252.65136528 46.80997944 C248.36349459 46.82904907 244.0764739 46.87814863 239.78893852 46.93349934 C235.41191926 46.98469314 231.03476233 47.0074937 226.65752983 47.03268147 C218.07250481 47.08626825 209.48817 47.17157954 200.90362358 47.27682209 Z M-41.09637642 104.27682209 C-42.15566822 107.4546975 -42.21096581 109.70271152 -42.19403267 113.03854084 C-42.19081001 114.15680256 -42.18758736 115.27506428 -42.18426704 116.42721272 C-42.17588814 117.59445881 -42.16750923 118.7617049 -42.15887642 119.96432209 C-42.1543647 121.14316975 -42.14985298 122.3220174 -42.14520454 123.53658772 C-42.13340915 126.45004998 -42.11694912 129.36341072 -42.09637642 132.27682209 C-33.08113055 132.44007317 -24.06640478 132.56392106 -15.04999542 132.63950729 C-10.86179412 132.67581256 -6.67461474 132.72493523 -2.48700142 132.80489826 C1.56557213 132.88178535 5.61717225 132.92298238 9.67041969 132.94096279 C11.20526619 132.95375098 12.74006829 132.97871794 14.27449226 133.01693249 C24.30451321 133.25645638 31.24189054 131.93712558 40.00796318 126.91831684 C50.71699337 120.84757151 64.75772191 121.42090959 76.38409233 124.06979084 C84.94018288 126.48203731 84.94018288 126.48203731 87.35776901 128.47641087 C94.23249848 133.99083012 102.68209068 132.99393957 111.02129936 132.95553303 C112.76330144 132.96559263 114.50529251 132.97774321 116.24726677 132.99181843 C120.96466929 133.02308222 125.68156062 133.02255782 130.3990407 133.01431274 C134.34734789 133.01014258 138.29555577 133.0211413 142.24384582 133.03195691 C151.56769397 133.05707934 160.89128867 133.05598864 170.21514702 133.03854084 C179.80609492 133.02104677 189.3962096 133.0473567 198.98703396 133.09550738 C207.24302899 133.13540375 215.49876227 133.14789451 223.75484836 133.13879323 C228.67606472 133.13363116 233.59672299 133.13849739 238.51785469 133.1697588 C243.15253274 133.19799766 247.78596124 133.19171441 252.42060471 133.16004276 C254.1111418 133.1540372 255.80177171 133.15968637 257.4922142 133.17855167 C267.67526786 133.28363119 274.92174009 132.16221087 283.78661728 126.9726572 C294.86722106 120.94415577 308.94517142 121.26517259 320.90362358 124.27682209 C330.90652841 127.74118511 330.90652841 127.74118511 334.93755913 130.84078693 C339.28158124 132.94396728 343.25420398 132.64852438 348.01690483 132.56979084 C349.47123169 132.56342358 349.47123169 132.56342358 350.95493889 132.55692768 C354.04228658 132.54017609 357.1289742 132.50252998 360.21612358 132.46432209 C362.31311934 132.44927072 364.41012537 132.43558311 366.50713921 132.42330647 C371.63955381 132.39028401 376.77147689 132.33852556 381.90362358 132.27682209 C381.93237745 129.54106953 381.95342197 126.80562168 381.97002983 124.06979084 C381.97893242 123.29824665 381.98783501 122.52670246 381.99700737 121.73177814 C382.02585673 115.3967981 381.85943344 110.369475 377.21612358 105.51119709 C372.44843507 101.26000817 369.78315485 100.15198398 363.31243134 100.14260101 C362.62415394 100.14024878 361.93587655 100.13789655 361.22674227 100.13547304 C358.89739166 100.12876327 356.56809659 100.12924186 354.23873711 100.12965107 C352.56106715 100.12635369 350.88339798 100.12262839 349.20572984 100.11850959 C344.57752926 100.10846741 339.94934164 100.10476925 335.32113171 100.10212028 C330.33671642 100.09822386 325.35231147 100.08864517 320.36790276 100.07990742 C308.32263875 100.06012559 296.27737388 100.05007522 284.23209769 100.04117963 C278.5652467 100.03680007 272.89839665 100.03143245 267.2315464 100.02619076 C248.40369231 100.00917776 229.57583881 99.99468194 210.74797821 99.98744202 C205.85975583 99.985532 200.97153345 99.98361169 196.08331108 99.98165607 C194.86831111 99.98117233 193.65331115 99.98068859 192.401493 99.9801902 C172.70402053 99.97188373 153.00660867 99.94653674 133.30916269 99.9140754 C113.10445711 99.88104842 92.89978237 99.86299726 72.69504964 99.85979778 C61.34337951 99.85762877 49.99179779 99.84882307 38.64015388 99.8233366 C28.97590568 99.8016892 19.31176736 99.79354973 9.64749767 99.80330338 C4.71335308 99.80786527 -0.22056451 99.80585277 -5.15467834 99.78654194 C-9.66750287 99.76903179 -14.17993277 99.7698082 -18.69276078 99.78543923 C-20.32937443 99.7878339 -21.96601454 99.7833965 -23.60258751 99.77161058 C-25.82004551 99.7566246 -28.03608094 99.7660695 -30.25350189 99.78183746 C-31.48726826 99.78086065 -32.72103463 99.77988385 -33.99218786 99.77887744 C-37.70284451 100.37410598 -38.85293228 101.31739619 -41.09637642 104.27682209 Z M29.87237358 148.07760334 C21.40856403 157.53221599 17.9365628 168.74345029 17.90362358 181.27682209 C18.73802603 193.19426571 25.09495353 204.39126311 33.90362358 212.27682209 C44.05300856 219.75359035 55.58016281 223.41194793 68.20831108 221.87447834 C75.73270165 220.37845245 81.68960065 217.74211998 87.90362358 213.27682209 C88.53913139 212.83596272 89.17463921 212.39510334 89.82940483 211.94088459 C97.29354218 206.21451758 103.41172564 196.61108618 104.90362358 187.27682209 C106.2885733 173.31103139 104.43979052 161.86192987 95.77862358 150.40182209 C87.3267402 140.77060614 76.32375855 135.19183555 63.56377983 134.28463459 C50.59714333 134.24655343 39.24069106 139.16751878 29.87237358 148.07760334 Z M273.27081108 148.62057209 C265.17529283 157.70465197 261.3694959 168.63660709 261.64971733 180.66744709 C262.90270201 193.54427426 268.54697037 203.53516017 277.90362358 212.27682209 C281.09233694 214.62769732 284.35290614 216.52752899 287.90362358 218.27682209 C288.55975639 218.60424397 289.21588921 218.93166584 289.89190483 219.26900959 C298.95626793 223.21003702 309.55955246 223.13485502 318.90362358 220.27682209 C333.13139058 214.50349452 341.09173692 206.33473676 347.14190483 192.31979084 C350.67655508 182.83967762 350.11547852 170.96526299 346.16143608 161.72994709 C340.31970096 150.3367494 332.80190818 142.24622449 320.90362358 137.27682209 C319.44956108 136.65807209 319.44956108 136.65807209 317.96612358 136.02682209 C300.87507799 131.84125991 285.90886372 136.80930794 273.27081108 148.62057209 Z M-48.09637642 147.27682209 C-48.09637642 155.19682209 -48.09637642 163.11682209 -48.09637642 171.27682209 C-30.27637642 171.27682209 -12.45637642 171.27682209 5.90362358 171.27682209 C7.22362358 166.32682209 8.54362358 161.37682209 9.90362358 156.27682209 C11.22362358 153.30682209 12.54362358 150.33682209 13.90362358 147.27682209 C-6.55637642 147.27682209 -27.01637642 147.27682209 -48.09637642 147.27682209 Z M109.90362358 147.27682209 C110.56362358 148.92682209 111.22362358 150.57682209 111.90362358 152.27682209 C112.77329268 154.79371491 113.62861153 157.31187476 114.46612358 159.83932209 C114.6871978 160.49867756 114.90827202 161.15803303 115.13604546 161.83736897 C116.17856063 164.97121368 117.10184854 168.06972192 117.90362358 171.27682209 C161.46362358 171.27682209 205.02362358 171.27682209 249.90362358 171.27682209 C250.89362358 166.98682209 251.88362358 162.69682209 252.90362358 158.27682209 C255.37862358 152.83182209 255.37862358 152.83182209 257.90362358 147.27682209 C209.06362358 147.27682209 160.22362358 147.27682209 109.90362358 147.27682209 Z M353.90362358 147.27682209 C355.48668044 152.02599267 357.15657 156.70953377 358.90362358 161.39791584 C360.03284521 164.64883905 360.95818196 167.96777641 361.90362358 171.27682209 C371.14362358 171.27682209 380.38362358 171.27682209 389.90362358 171.27682209 C389.90362358 163.35682209 389.90362358 155.43682209 389.90362358 147.27682209 C378.02362358 147.27682209 366.14362358 147.27682209 353.90362358 147.27682209 Z " fill="#FFFFFF" transform="translate(85.09637641906738,137.72317790985107)"></path><path d="M0 0 C5.82485779 3.51996782 10.54466582 8.98962934 12.5625 15.5 C13.36764105 23.33608208 13.68710392 31.11922577 8.5625 37.5 C3.75801361 42.54521222 -0.59927055 46.10562995 -7.70703125 46.8359375 C-16.22326573 46.92983204 -22.11345494 46.6177288 -28.40234375 40.62890625 C-34.7841668 33.72505269 -35.91792252 28.29832071 -35.7421875 18.9453125 C-35.04689797 11.08319245 -31.38995981 6.95041296 -25.53515625 1.9453125 C-18.47077988 -2.92213491 -7.84396301 -3.47595223 0 0 Z M-21.4375 16.5 C-23.05179923 19.72859847 -23.03320657 23.00993653 -22.4375 26.5 C-20.70147895 29.52508145 -18.60169863 31.91790069 -15.4375 33.5 C-10.31379602 34.10728845 -10.31379602 34.10728845 -5.61328125 32.453125 C-1.80997256 29.32207185 -0.55086633 27.63366332 -0.0625 22.75 C-0.08691225 19.39941932 -0.68148646 17.65105468 -2.8125 15.0625 C-6.3423586 11.61668565 -8.3658652 11.10444164 -13.33203125 11.140625 C-17.05343453 11.77581814 -18.84062849 13.83979016 -21.4375 16.5 Z " fill="#FFFFFF" transform="translate(158.4375,293.5)"></path><path d="M0 0 C6.19322166 3.76632752 10.46029255 9.5251581 12.5 16.4375 C13.57048128 24.83483091 12.43792487 31.48232763 7.5 38.4375 C3.16980484 43.19183729 -1.20938884 46.05580518 -7.69921875 46.80859375 C-15.65961893 46.96013552 -22.09613069 46.51115381 -28.5 41.4375 C-34.13933998 35.15198565 -36.80996641 28.46197128 -36.4375 20 C-35.4661313 11.84943508 -31.47940745 6.8446412 -25.34375 1.6640625 C-18.28962389 -3.02872478 -7.70692223 -3.47333246 0 0 Z M-20.5 14.4375 C-22.8770815 18.42486252 -23.64226154 20.50489659 -22.9375 25.125 C-21.20933664 29.10728949 -19.39878487 31.48810756 -15.5 33.4375 C-10.56621607 33.93087839 -8.43080765 33.96213704 -4.0625 31.5 C-1.17111775 28.04444561 -0.47836136 26.06722721 -0.2578125 21.65625 C-0.64360721 18.12187266 -2.19649533 16.06093588 -4.5 13.4375 C-9.68287188 9.98225208 -15.81857012 10.29109068 -20.5 14.4375 Z " fill="#FFFFFF" transform="translate(402.5,293.5625)"></path></svg>