<svg xmlns="http://www.w3.org/2000/svg" width="512" height="512"><path d="M0 0 C2.16308594 1.17700195 2.16308594 1.17700195 4 3 C4.45410156 5.54370117 4.45410156 5.54370117 4.390625 8.54296875 C4.37773437 9.61611328 4.36484375 10.68925781 4.3515625 11.79492188 C4.30128906 13.47424805 4.30128906 13.47424805 4.25 15.1875 C4.23195313 16.31865234 4.21390625 17.44980469 4.1953125 18.61523438 C4.14812652 21.41100376 4.08230595 24.20507972 4 27 C4.64026123 26.97905273 5.28052246 26.95810547 5.94018555 26.93652344 C8.85579575 26.85310716 11.77115452 26.80126031 14.6875 26.75 C16.19860352 26.69972656 16.19860352 26.69972656 17.74023438 26.6484375 C25.1889903 26.55010409 25.1889903 26.55010409 29.17578125 28.76171875 C31.114494 31.14048193 31.63949831 32.04584899 31.5 35.0625 C31 39 31 39 29.81518555 40.7277832 C27.28878747 42.49847055 25.52258361 42.34162831 22.45703125 42.29296875 C21.48999268 42.28547607 20.5229541 42.2779834 19.52661133 42.27026367 C17.68812622 42.22929565 17.68812622 42.22929565 15.8125 42.1875 C9.9653125 42.0946875 9.9653125 42.0946875 4 42 C4 54.87 4 67.74 4 81 C9.28 81.33 14.56 81.66 20 82 C23.84489044 82.6133576 27.53420284 83.26035254 31.3125 84.125 C32.28687012 84.34526855 33.26124023 84.56553711 34.26513672 84.79248047 C62.81567347 91.53351481 87.87123446 105.75013486 109 126 C110.30130859 127.2065625 110.30130859 127.2065625 111.62890625 128.4375 C137.57144714 153.23605972 153.78257966 188.41861639 157 224 C158.33961792 223.97643433 158.33961792 223.97643433 159.70629883 223.95239258 C163.02178756 223.90124561 166.33685675 223.86364188 169.65258789 223.83520508 C171.08722552 223.82012411 172.52181708 223.7996562 173.95629883 223.77368164 C176.01915859 223.73726563 178.08140858 223.72026757 180.14453125 223.70703125 C182.00621948 223.68346558 182.00621948 223.68346558 183.90551758 223.65942383 C187 224 187 224 188.8659668 225.39331055 C192.36686708 230.35335893 191.1859385 236.75020793 191.18530273 242.60302734 C191.18748476 244.85924259 191.20563167 247.11496534 191.22460938 249.37109375 C191.22754431 250.80729 191.22952844 252.24348856 191.23046875 253.6796875 C191.23457764 254.98663574 191.23868652 256.29358398 191.24291992 257.64013672 C191.01733636 260.76021812 190.72308501 262.44062692 189 265 C185.55101825 267.5548013 182.15000228 267.05797442 178 267 C178.02094727 267.94842773 178.04189453 268.89685547 178.06347656 269.87402344 C178.1317356 273.40016425 178.18183929 276.92560099 178.21972656 280.45214844 C178.23981599 281.97700085 178.26709316 283.50177648 178.30175781 285.02636719 C178.35039796 287.22089598 178.37299396 289.41440469 178.390625 291.609375 C178.41157227 292.92905273 178.43251953 294.24873047 178.45410156 295.60839844 C178 299 178 299 176.53808594 301.46191406 C174 303 174 303 165 303 C165 339.63 165 376.26 165 414 C167.64 414 170.28 414 173 414 C175.96069336 415.3828125 175.96069336 415.3828125 178 418 C178.71674663 421.29641256 178.67688082 424.51251624 178.62890625 427.875 C178.63131821 428.83647949 178.63373016 429.79795898 178.63621521 430.78857422 C178.63523664 432.81937794 178.62184078 434.85020829 178.59692383 436.88085938 C178.56261916 439.9892031 178.57626319 443.09470358 178.59570312 446.203125 C178.58880456 448.17709544 178.57913209 450.15105853 178.56640625 452.125 C178.57136612 453.05425293 178.57632599 453.98350586 178.58143616 454.94091797 C178.56559982 455.80861816 178.54976349 456.67631836 178.53344727 457.5703125 C178.5241494 458.71137451 178.5241494 458.71137451 178.5146637 459.87548828 C177.7777659 462.91737371 176.41580299 464.04268536 174 466 C171.23795033 466.50139666 171.23795033 466.50139666 167.99043274 466.50336456 C166.75181331 466.51379555 165.51319387 466.52422654 164.23704052 466.53497362 C162.86025449 466.52632514 161.4834708 466.5172985 160.10668945 466.50793457 C158.64590234 466.51254204 157.18511986 466.51889391 155.72434711 466.52684355 C151.70482418 466.5435815 147.68567985 466.53527045 143.66615534 466.52289867 C139.33343055 466.51386867 135.00077203 466.52780769 130.6680603 466.53881836 C122.17816433 466.55663014 113.68840959 466.55275179 105.19850802 466.5411678 C98.3002651 466.53214419 91.40206183 466.53090482 84.5038147 466.53526306 C83.52303367 466.53587599 82.54225264 466.53648893 81.53175098 466.53712043 C79.53948203 466.5383993 77.54721309 466.53969615 75.55494416 466.5410108 C56.8615229 466.55242438 38.16818002 466.53929069 19.47477162 466.51780933 C3.42552462 466.49993765 -12.62360666 466.50304154 -28.67285156 466.52148438 C-47.29814085 466.54287735 -65.92336138 466.55132568 -84.54866123 466.53903532 C-86.53371238 466.53776109 -88.51876353 466.53650361 -90.5038147 466.53526306 C-91.96894305 466.53433741 -91.96894305 466.53433741 -93.46366996 466.53339306 C-100.35579143 466.52993543 -107.24786939 466.53577737 -114.13998413 466.54518127 C-122.53609616 466.55638517 -130.93205855 466.55339519 -139.32815337 466.5320583 C-143.61422447 466.52152613 -147.90004586 466.51746273 -152.18611526 466.53065491 C-156.10676965 466.5425401 -160.02694192 466.53608095 -163.94755232 466.5147447 C-165.3687548 466.51026209 -166.78999769 466.51258197 -168.21117437 466.52224785 C-170.1375661 466.53434876 -172.06407131 466.51958735 -173.99043274 466.50336456 C-175.06211354 466.50271515 -176.13379435 466.50206574 -177.23795033 466.50139666 C-180.6801703 465.87652825 -181.86133166 464.71285499 -184 462 C-184.5146637 459.87548828 -184.5146637 459.87548828 -184.53344727 457.5703125 C-184.5492836 456.7026123 -184.56511993 455.83491211 -184.58143616 454.94091797 C-184.57647629 454.01166504 -184.57151642 453.08241211 -184.56640625 452.125 C-184.57260483 451.16352051 -184.57880341 450.20204102 -184.58518982 449.21142578 C-184.59228682 447.18067436 -184.58911608 445.14986474 -184.57641602 443.11914062 C-184.56254743 440.01063122 -184.59662601 436.90513025 -184.63476562 433.796875 C-184.6357168 431.82291593 -184.63385809 429.84895309 -184.62890625 427.875 C-184.64216446 426.94574707 -184.65542267 426.01649414 -184.66908264 425.05908203 C-184.6090129 420.90029641 -184.56757778 418.728413 -181.96069336 415.3828125 C-179 414 -179 414 -171 414 C-171 377.37 -171 340.74 -171 303 C-173.97 303 -176.94 303 -180 303 C-182.53808594 301.46191406 -182.53808594 301.46191406 -184 299 C-184.45410156 295.60839844 -184.45410156 295.60839844 -184.390625 291.609375 C-184.38496521 290.90476135 -184.37930542 290.20014771 -184.37347412 289.47418213 C-184.35115078 287.23208572 -184.30096754 284.99161012 -184.25 282.75 C-184.22992952 281.22658565 -184.2116797 279.70314614 -184.1953125 278.1796875 C-184.15130118 274.4526017 -184.08230372 270.72645913 -184 267 C-185.09570312 267.02707031 -186.19140625 267.05414063 -187.3203125 267.08203125 C-191.29048371 266.99352425 -192.92650596 266.44071586 -196 264 C-197.7758471 258.67245871 -197.18591223 252.9015017 -197.18530273 247.3215332 C-197.18748863 245.07418872 -197.20565452 242.82733576 -197.22460938 240.58007812 C-197.2275437 239.14843917 -197.22952823 237.7167979 -197.23046875 236.28515625 C-197.23457764 234.98457275 -197.23868652 233.68398926 -197.24291992 232.34399414 C-197.01735574 229.23891609 -196.74975508 227.53212523 -195 225 C-192.0780231 223.53901155 -189.50106525 223.88865099 -186.2421875 223.90234375 C-185.24761032 223.90446617 -185.24761032 223.90446617 -184.23294067 223.90663147 C-182.11358137 223.91223246 -179.99432741 223.924785 -177.875 223.9375 C-176.43880361 223.94251488 -175.00260556 223.94707781 -173.56640625 223.95117188 C-170.04423655 223.96220218 -166.52212855 223.97946741 -163 224 C-162.90847656 222.98784424 -162.81695312 221.97568848 -162.72265625 220.93286133 C-159.39809066 186.31208668 -142.63213773 154.98481901 -119 130 C-117.78957031 128.69289062 -117.78957031 128.69289062 -116.5546875 127.359375 C-104.78615959 115.06389808 -91.08394996 105.75702499 -76 98 C-75.39365723 97.68192383 -74.78731445 97.36384766 -74.16259766 97.03613281 C-54.06216737 86.59590932 -32.46763366 82.4042271 -10 81 C-10 68.13 -10 55.26 -10 42 C-17.76362202 42.11854942 -17.76362202 42.11854942 -25.52661133 42.27026367 C-26.4936499 42.27775635 -27.46068848 42.28524902 -28.45703125 42.29296875 C-29.44678955 42.3086792 -30.43654785 42.32438965 -31.45629883 42.34057617 C-34 42 -34 42 -35.81518555 40.7277832 C-37.47502136 38.30728906 -37.46097826 35.90634521 -37.59375 33.03515625 C-36.59050998 29.59641908 -35.12161392 28.73167021 -32 27 C-28.21529339 26.51915919 -24.49462502 26.62333941 -20.6875 26.75 C-19.14739258 26.77707031 -19.14739258 26.77707031 -17.57617188 26.8046875 C-15.04982115 26.85168937 -12.52539531 26.91737728 -10 27 C-10.02094727 26.2886792 -10.04189453 25.5773584 -10.06347656 24.84448242 C-10.14655725 21.62563172 -10.19863466 18.40700634 -10.25 15.1875 C-10.28351563 14.06794922 -10.31703125 12.94839844 -10.3515625 11.79492188 C-10.36445313 10.72177734 -10.37734375 9.64863281 -10.390625 8.54296875 C-10.41157227 7.55321045 -10.43251953 6.56345215 -10.45410156 5.54370117 C-10 3 -10 3 -8.16308594 1.17700195 C-5.22878059 -0.41964433 -3.29557778 -0.41194722 0 0 Z M-110.5625 142.875 C-111.7140256 144.24523641 -112.8597459 145.62036976 -114 147 C-114.60199219 147.6909375 -115.20398438 148.381875 -115.82421875 149.09375 C-134.14061846 170.7910673 -143.73155758 196.25512425 -148 224 C-52.3 224 43.4 224 142 224 C135.66060044 188.0767358 120.97523986 154.52396592 92 131 C91.05382812 130.22785156 90.10765625 129.45570313 89.1328125 128.66015625 C30.22549921 81.49201884 -59.33568566 85.31678164 -110.5625 142.875 Z M-182 239 C-182 243.29 -182 247.58 -182 252 C-63.86 252 54.28 252 176 252 C176 247.71 176 243.42 176 239 C57.86 239 -60.28 239 -182 239 Z M-169 267 C-169 273.93 -169 280.86 -169 288 C-155.8 288 -142.6 288 -129 288 C-129 281.07 -129 274.14 -129 267 C-142.2 267 -155.4 267 -169 267 Z M-114 267 C-114.33 276.9 -114.66 286.8 -115 297 C-116.485 299.475 -116.485 299.475 -118 302 C-122.95 302.495 -122.95 302.495 -128 303 C-128 339.63 -128 376.26 -128 414 C-124.04 414.66 -120.08 415.32 -116 416 C-115.02531337 419.89874653 -114.79849008 423.16691711 -114.68359375 427.171875 C-114.64548584 428.4206543 -114.60737793 429.66943359 -114.56811523 430.95605469 C-114.52501221 432.53805664 -114.48190918 434.12005859 -114.4375 435.75 C-114.293125 440.7825 -114.14875 445.815 -114 451 C-98.82 451 -83.64 451 -68 451 C-67.96132812 443.03166016 -67.96132812 443.03166016 -67.921875 434.90234375 C-67.89666461 431.50711538 -67.87029962 428.11197242 -67.83984375 424.71679688 C-67.79176738 419.34529467 -67.74762694 413.97399056 -67.72900391 408.60229492 C-67.71369431 404.26427406 -67.6790015 399.92677676 -67.63169098 395.58899117 C-67.61702286 393.94632113 -67.60896751 392.30357629 -67.60811615 390.66084099 C-67.58695205 370.27229532 -62.69145919 352.01485609 -48 337 C-33.98156331 324.99005278 -17.41269534 319.0760972 0.984375 319.6171875 C18.35258157 320.96691616 34.85583086 328.32660121 46.2890625 341.671875 C58.26048913 357.54410357 61.59931895 373.68628732 61.609375 393.08984375 C61.62439892 394.77235979 61.64113468 396.45486131 61.65948486 398.13734436 C61.70269891 402.51179782 61.7230539 406.88605259 61.73822021 411.26068115 C61.76144522 416.53829343 61.81381986 421.81569154 61.86116028 427.09313202 C61.92945567 435.06214302 61.9613227 443.03054296 62 451 C77.18 451 92.36 451 108 451 C108.2888733 440.97816202 108.2888733 440.97816202 108.56811523 430.95605469 C108.60622314 429.70727539 108.64433105 428.45849609 108.68359375 427.171875 C108.73858032 425.2552002 108.73858032 425.2552002 108.79467773 423.29980469 C109 420 109 420 110 416 C113.96 415.34 117.92 414.68 122 414 C122 377.37 122 340.74 122 303 C118.7 302.67 115.4 302.34 112 302 C109 297 109 297 108 267 C34.74 267 -38.52 267 -114 267 Z M123 267 C123 273.93 123 280.86 123 288 C136.2 288 149.4 288 163 288 C163 281.07 163 274.14 163 267 C149.8 267 136.6 267 123 267 Z M-156 303 C-156 339.63 -156 376.26 -156 414 C-151.71 414 -147.42 414 -143 414 C-143 377.37 -143 340.74 -143 303 C-147.29 303 -151.58 303 -156 303 Z M137 303 C137 339.63 137 376.26 137 414 C141.29 414 145.58 414 150 414 C150 377.37 150 340.74 150 303 C145.71 303 141.42 303 137 303 Z M-41 351 C-48.68536377 361.1507676 -53.13525369 371.60608182 -53.11352539 384.3605957 C-53.11364593 385.09470012 -53.11376646 385.82880453 -53.11389065 386.58515453 C-53.11314747 388.94872817 -53.10554649 391.31222181 -53.09765625 393.67578125 C-53.09618499 395.14009564 -53.09516541 396.60441056 -53.09460449 398.06872559 C-53.089373 403.48332511 -53.07541173 408.89791335 -53.0625 414.3125 C-53.041875 426.419375 -53.02125 438.52625 -53 451 C-20 451 13 451 47 451 C47.0825 439.058125 47.165 427.11625 47.25 414.8125 C47.28641602 411.06753174 47.32283203 407.32256348 47.36035156 403.46411133 C47.37374442 400.05276454 47.37374442 400.05276454 47.3817749 396.6414032 C47.38784336 395.14359253 47.40175473 393.64579909 47.42230225 392.14811707 C47.64385578 375.12070282 43.83499703 360.7401124 32.0390625 347.87890625 C21.3753551 338.05276974 8.49611543 333.61253257 -5.78515625 333.7890625 C-19.48543328 334.68798712 -31.76010139 340.88676503 -41 351 Z M-169 429 C-169 436.26 -169 443.52 -169 451 C-155.8 451 -142.6 451 -129 451 C-129 443.74 -129 436.48 -129 429 C-142.2 429 -155.4 429 -169 429 Z M123 429 C123 436.26 123 443.52 123 451 C136.2 451 149.4 451 163 451 C163 443.74 163 436.48 163 429 C149.8 429 136.6 429 123 429 Z " fill="#FFFFFF" transform="translate(259,23)"></path></svg>